<svg width="165" height="156" viewBox="0 0 165 156" fill="none" xmlns="http://www.w3.org/2000/svg">
<rect x="49" y="49" width="67" height="58" fill="#181818"/>
<rect x="125" y="60" width="30" height="38" fill="#181818"/>
<path d="M155 60H160C162.761 60 165 62.2386 165 65V93C165 95.7614 162.761 98 160 98H155V60Z" fill="#383838"/>
<rect x="40" y="98" width="30" height="38" transform="rotate(-180 40 98)" fill="#181818"/>
<path d="M10 98H5C2.23858 98 0 95.7614 0 93L0 65C0 62.2386 2.23858 60 5 60H10L10 98Z" fill="#383838"/>
<rect x="63" y="40" width="30" height="38" transform="rotate(-90 63 40)" fill="#181818"/>
<rect x="63" y="146" width="30" height="38" transform="rotate(-90 63 146)" fill="#181818"/>
<path d="M63 10V5C63 2.23858 65.2386 0 68 0L96 0C98.7614 0 101 2.23858 101 5V10L63 10Z" fill="#383838"/>
<path d="M101 146V151C101 153.761 98.7614 156 96 156H68C65.2386 156 63 153.761 63 151V146H101Z" fill="#383838"/>
</svg>
